<?xml version="1.0" ?><svg data-name="Layer 1" id="Layer_1" viewBox="0 0 32 32" xmlns="http://www.w3.org/2000/svg"><defs><style>.cls-1{fill:#c939e2;}.cls-2{fill:#f4d7f9;}</style></defs><title/><path class="cls-1" d="M14.47,29.36a12.47,12.47,0,1,1,0-24.93h.66A.93.93,0,1,1,15,6.3h-.55A10.61,10.61,0,1,0,25.07,16.9c0-.19,0-.37,0-.56a.93.93,0,0,1,1.86-.11c0,.23,0,.44,0,.67A12.47,12.47,0,0,1,14.47,29.36Z"/><path class="cls-2" d="M25,9l4.78-4.77a.93.93,0,0,0-1.32-1.32L23.63,7.68,18.86,2.91a.93.93,0,0,0-1.32,1.32L22.31,9l-4.77,4.78a.94.94,0,0,0,0,1.32.94.94,0,0,0,1.32,0l4.77-4.78,4.78,4.78a.93.93,0,0,0,.66.27.93.93,0,0,0,.66-1.59Z"/></svg>